<svg viewBox="0 0 800 1000" xmlns="http://www.w3.org/2000/svg" data-draw-bounds="298 244 502 332">
  <g stroke="#5b4438" stroke-width="3" stroke-linecap="round" fill="none" opacity=".58">
    <path d="M338 252c8-6 26-6 36 0"/>
    <path d="M426 252c8-6 26-6 36 0"/>
  </g>
  <circle cx="358" cy="274" r="16" fill="#3f302b"/>
  <circle cx="442" cy="274" r="16" fill="#3f302b"/>
  <circle cx="358" cy="274" r="11" fill="#7a4c3c" opacity=".72"/>
  <circle cx="442" cy="274" r="11" fill="#7a4c3c" opacity=".72"/>
  <circle cx="354" cy="268" r="6" fill="#ffffff"/>
  <circle cx="438" cy="268" r="6" fill="#ffffff"/>
  <circle cx="362" cy="280" r="2.4" fill="#ffffff" opacity=".82"/>
  <circle cx="446" cy="280" r="2.4" fill="#ffffff" opacity=".82"/>
  <ellipse cx="324" cy="310" rx="26" ry="14" fill="#ff9db0" opacity=".55"/>
  <ellipse cx="476" cy="310" rx="26" ry="14" fill="#ff9db0" opacity=".55"/>
  <ellipse cx="324" cy="306" rx="14" ry="6" fill="#ffffff" opacity=".34"/>
  <ellipse cx="476" cy="306" rx="14" ry="6" fill="#ffffff" opacity=".34"/>
  <path d="M364 320c20 22 52 22 72 0" fill="#ffe1f1" stroke="#4c382f" stroke-width="9" stroke-linecap="round" stroke-linejoin="round"/>
  <path d="M392 326c4 4 12 4 16 0" fill="none" stroke="#4c382f" stroke-width="5" stroke-linecap="round" opacity=".52"/>
</svg>
