<svg viewBox="0 0 800 1000" xmlns="http://www.w3.org/2000/svg" data-draw-bounds="218 390 416 732">
  <g stroke="#5b4438" stroke-width="12" stroke-linejoin="round">
    <path d="M252 438c16-54 114-54 130 0v220c0 38-24 66-65 66s-65-28-65-66z" fill="#ef5656"/>
    <path d="M286 420c0-30 62-30 62 0" fill="none" stroke-linecap="round"/>
    <path d="M272 538h90" stroke-linecap="round"/>
    <path d="M262 470c-42 40-55 104-41 184" fill="none" stroke-linecap="round"/>
    <path d="M372 470c42 40 55 104 41 184" fill="none" stroke-linecap="round"/>
    <path d="M282 604h70v76h-70z" fill="#ff9a65"/>
    <path d="M278 462c20 16 58 16 78 0" fill="none" stroke="#ffffff" stroke-width="8" stroke-linecap="round" opacity=".42"/>
  </g>
  <path d="M292 642h50" stroke="#fff6c8" stroke-width="7" stroke-linecap="round"/>
  <g fill="#fff6c8" opacity=".75">
    <circle cx="292" cy="512" r="7"/>
    <circle cx="342" cy="512" r="7"/>
  </g>
</svg>
