<svg xmlns="http://www.w3.org/2000/svg" viewBox="0 0 540 612" role="img" aria-label="おしゃれして しゅっぱつ！を開くQRコード">
  <rect width="540" height="612" rx="24" fill="#fff8e8"/>
  <rect x="0" y="0" width="540" height="540" fill="#ffffff"/>
  <g fill="#3f302b">
    <rect x="48" y="48" width="12" height="12"/>
    <rect x="60" y="48" width="12" height="12"/>
    <rect x="72" y="48" width="12" height="12"/>
    <rect x="84" y="48" width="12" height="12"/>
    <rect x="96" y="48" width="12" height="12"/>
    <rect x="108" y="48" width="12" height="12"/>
    <rect x="120" y="48" width="12" height="12"/>
    <rect x="168" y="48" width="12" height="12"/>
    <rect x="192" y="48" width="12" height="12"/>
    <rect x="216" y="48" width="12" height="12"/>
    <rect x="240" y="48" width="12" height="12"/>
    <rect x="264" y="48" width="12" height="12"/>
    <rect x="276" y="48" width="12" height="12"/>
    <rect x="300" y="48" width="12" height="12"/>
    <rect x="312" y="48" width="12" height="12"/>
    <rect x="324" y="48" width="12" height="12"/>
    <rect x="360" y="48" width="12" height="12"/>
    <rect x="372" y="48" width="12" height="12"/>
    <rect x="408" y="48" width="12" height="12"/>
    <rect x="420" y="48" width="12" height="12"/>
    <rect x="432" y="48" width="12" height="12"/>
    <rect x="444" y="48" width="12" height="12"/>
    <rect x="456" y="48" width="12" height="12"/>
    <rect x="468" y="48" width="12" height="12"/>
    <rect x="480" y="48" width="12" height="12"/>
    <rect x="48" y="60" width="12" height="12"/>
    <rect x="120" y="60" width="12" height="12"/>
    <rect x="144" y="60" width="12" height="12"/>
    <rect x="156" y="60" width="12" height="12"/>
    <rect x="180" y="60" width="12" height="12"/>
    <rect x="204" y="60" width="12" height="12"/>
    <rect x="228" y="60" width="12" height="12"/>
    <rect x="252" y="60" width="12" height="12"/>
    <rect x="276" y="60" width="12" height="12"/>
    <rect x="288" y="60" width="12" height="12"/>
    <rect x="312" y="60" width="12" height="12"/>
    <rect x="324" y="60" width="12" height="12"/>
    <rect x="336" y="60" width="12" height="12"/>
    <rect x="348" y="60" width="12" height="12"/>
    <rect x="372" y="60" width="12" height="12"/>
    <rect x="384" y="60" width="12" height="12"/>
    <rect x="408" y="60" width="12" height="12"/>
    <rect x="480" y="60" width="12" height="12"/>
    <rect x="48" y="72" width="12" height="12"/>
    <rect x="72" y="72" width="12" height="12"/>
    <rect x="84" y="72" width="12" height="12"/>
    <rect x="96" y="72" width="12" height="12"/>
    <rect x="120" y="72" width="12" height="12"/>
    <rect x="168" y="72" width="12" height="12"/>
    <rect x="192" y="72" width="12" height="12"/>
    <rect x="216" y="72" width="12" height="12"/>
    <rect x="240" y="72" width="12" height="12"/>
    <rect x="276" y="72" width="12" height="12"/>
    <rect x="300" y="72" width="12" height="12"/>
    <rect x="312" y="72" width="12" height="12"/>
    <rect x="324" y="72" width="12" height="12"/>
    <rect x="372" y="72" width="12" height="12"/>
    <rect x="384" y="72" width="12" height="12"/>
    <rect x="408" y="72" width="12" height="12"/>
    <rect x="432" y="72" width="12" height="12"/>
    <rect x="444" y="72" width="12" height="12"/>
    <rect x="456" y="72" width="12" height="12"/>
    <rect x="480" y="72" width="12" height="12"/>
    <rect x="48" y="84" width="12" height="12"/>
    <rect x="72" y="84" width="12" height="12"/>
    <rect x="84" y="84" width="12" height="12"/>
    <rect x="96" y="84" width="12" height="12"/>
    <rect x="120" y="84" width="12" height="12"/>
    <rect x="156" y="84" width="12" height="12"/>
    <rect x="180" y="84" width="12" height="12"/>
    <rect x="204" y="84" width="12" height="12"/>
    <rect x="228" y="84" width="12" height="12"/>
    <rect x="252" y="84" width="12" height="12"/>
    <rect x="300" y="84" width="12" height="12"/>
    <rect x="312" y="84" width="12" height="12"/>
    <rect x="324" y="84" width="12" height="12"/>
    <rect x="336" y="84" width="12" height="12"/>
    <rect x="348" y="84" width="12" height="12"/>
    <rect x="372" y="84" width="12" height="12"/>
    <rect x="408" y="84" width="12" height="12"/>
    <rect x="432" y="84" width="12" height="12"/>
    <rect x="444" y="84" width="12" height="12"/>
    <rect x="456" y="84" width="12" height="12"/>
    <rect x="480" y="84" width="12" height="12"/>
    <rect x="48" y="96" width="12" height="12"/>
    <rect x="72" y="96" width="12" height="12"/>
    <rect x="84" y="96" width="12" height="12"/>
    <rect x="96" y="96" width="12" height="12"/>
    <rect x="120" y="96" width="12" height="12"/>
    <rect x="144" y="96" width="12" height="12"/>
    <rect x="168" y="96" width="12" height="12"/>
    <rect x="192" y="96" width="12" height="12"/>
    <rect x="216" y="96" width="12" height="12"/>
    <rect x="228" y="96" width="12" height="12"/>
    <rect x="240" y="96" width="12" height="12"/>
    <rect x="252" y="96" width="12" height="12"/>
    <rect x="300" y="96" width="12" height="12"/>
    <rect x="312" y="96" width="12" height="12"/>
    <rect x="336" y="96" width="12" height="12"/>
    <rect x="408" y="96" width="12" height="12"/>
    <rect x="432" y="96" width="12" height="12"/>
    <rect x="444" y="96" width="12" height="12"/>
    <rect x="456" y="96" width="12" height="12"/>
    <rect x="480" y="96" width="12" height="12"/>
    <rect x="48" y="108" width="12" height="12"/>
    <rect x="120" y="108" width="12" height="12"/>
    <rect x="156" y="108" width="12" height="12"/>
    <rect x="180" y="108" width="12" height="12"/>
    <rect x="204" y="108" width="12" height="12"/>
    <rect x="240" y="108" width="12" height="12"/>
    <rect x="264" y="108" width="12" height="12"/>
    <rect x="300" y="108" width="12" height="12"/>
    <rect x="324" y="108" width="12" height="12"/>
    <rect x="336" y="108" width="12" height="12"/>
    <rect x="348" y="108" width="12" height="12"/>
    <rect x="360" y="108" width="12" height="12"/>
    <rect x="408" y="108" width="12" height="12"/>
    <rect x="480" y="108" width="12" height="12"/>
    <rect x="48" y="120" width="12" height="12"/>
    <rect x="60" y="120" width="12" height="12"/>
    <rect x="72" y="120" width="12" height="12"/>
    <rect x="84" y="120" width="12" height="12"/>
    <rect x="96" y="120" width="12" height="12"/>
    <rect x="108" y="120" width="12" height="12"/>
    <rect x="120" y="120" width="12" height="12"/>
    <rect x="144" y="120" width="12" height="12"/>
    <rect x="168" y="120" width="12" height="12"/>
    <rect x="192" y="120" width="12" height="12"/>
    <rect x="216" y="120" width="12" height="12"/>
    <rect x="240" y="120" width="12" height="12"/>
    <rect x="264" y="120" width="12" height="12"/>
    <rect x="288" y="120" width="12" height="12"/>
    <rect x="312" y="120" width="12" height="12"/>
    <rect x="336" y="120" width="12" height="12"/>
    <rect x="360" y="120" width="12" height="12"/>
    <rect x="384" y="120" width="12" height="12"/>
    <rect x="408" y="120" width="12" height="12"/>
    <rect x="420" y="120" width="12" height="12"/>
    <rect x="432" y="120" width="12" height="12"/>
    <rect x="444" y="120" width="12" height="12"/>
    <rect x="456" y="120" width="12" height="12"/>
    <rect x="468" y="120" width="12" height="12"/>
    <rect x="480" y="120" width="12" height="12"/>
    <rect x="156" y="132" width="12" height="12"/>
    <rect x="180" y="132" width="12" height="12"/>
    <rect x="204" y="132" width="12" height="12"/>
    <rect x="240" y="132" width="12" height="12"/>
    <rect x="252" y="132" width="12" height="12"/>
    <rect x="264" y="132" width="12" height="12"/>
    <rect x="288" y="132" width="12" height="12"/>
    <rect x="300" y="132" width="12" height="12"/>
    <rect x="312" y="132" width="12" height="12"/>
    <rect x="324" y="132" width="12" height="12"/>
    <rect x="348" y="132" width="12" height="12"/>
    <rect x="360" y="132" width="12" height="12"/>
    <rect x="384" y="132" width="12" height="12"/>
    <rect x="48" y="144" width="12" height="12"/>
    <rect x="72" y="144" width="12" height="12"/>
    <rect x="96" y="144" width="12" height="12"/>
    <rect x="120" y="144" width="12" height="12"/>
    <rect x="168" y="144" width="12" height="12"/>
    <rect x="192" y="144" width="12" height="12"/>
    <rect x="216" y="144" width="12" height="12"/>
    <rect x="228" y="144" width="12" height="12"/>
    <rect x="240" y="144" width="12" height="12"/>
    <rect x="252" y="144" width="12" height="12"/>
    <rect x="276" y="144" width="12" height="12"/>
    <rect x="288" y="144" width="12" height="12"/>
    <rect x="300" y="144" width="12" height="12"/>
    <rect x="336" y="144" width="12" height="12"/>
    <rect x="348" y="144" width="12" height="12"/>
    <rect x="372" y="144" width="12" height="12"/>
    <rect x="432" y="144" width="12" height="12"/>
    <rect x="468" y="144" width="12" height="12"/>
    <rect x="60" y="156" width="12" height="12"/>
    <rect x="84" y="156" width="12" height="12"/>
    <rect x="108" y="156" width="12" height="12"/>
    <rect x="132" y="156" width="12" height="12"/>
    <rect x="156" y="156" width="12" height="12"/>
    <rect x="180" y="156" width="12" height="12"/>
    <rect x="204" y="156" width="12" height="12"/>
    <rect x="228" y="156" width="12" height="12"/>
    <rect x="264" y="156" width="12" height="12"/>
    <rect x="300" y="156" width="12" height="12"/>
    <rect x="312" y="156" width="12" height="12"/>
    <rect x="336" y="156" width="12" height="12"/>
    <rect x="408" y="156" width="12" height="12"/>
    <rect x="480" y="156" width="12" height="12"/>
    <rect x="48" y="168" width="12" height="12"/>
    <rect x="72" y="168" width="12" height="12"/>
    <rect x="96" y="168" width="12" height="12"/>
    <rect x="120" y="168" width="12" height="12"/>
    <rect x="144" y="168" width="12" height="12"/>
    <rect x="168" y="168" width="12" height="12"/>
    <rect x="192" y="168" width="12" height="12"/>
    <rect x="216" y="168" width="12" height="12"/>
    <rect x="228" y="168" width="12" height="12"/>
    <rect x="240" y="168" width="12" height="12"/>
    <rect x="252" y="168" width="12" height="12"/>
    <rect x="312" y="168" width="12" height="12"/>
    <rect x="336" y="168" width="12" height="12"/>
    <rect x="348" y="168" width="12" height="12"/>
    <rect x="384" y="168" width="12" height="12"/>
    <rect x="396" y="168" width="12" height="12"/>
    <rect x="432" y="168" width="12" height="12"/>
    <rect x="444" y="168" width="12" height="12"/>
    <rect x="468" y="168" width="12" height="12"/>
    <rect x="480" y="168" width="12" height="12"/>
    <rect x="60" y="180" width="12" height="12"/>
    <rect x="84" y="180" width="12" height="12"/>
    <rect x="108" y="180" width="12" height="12"/>
    <rect x="132" y="180" width="12" height="12"/>
    <rect x="156" y="180" width="12" height="12"/>
    <rect x="180" y="180" width="12" height="12"/>
    <rect x="204" y="180" width="12" height="12"/>
    <rect x="228" y="180" width="12" height="12"/>
    <rect x="240" y="180" width="12" height="12"/>
    <rect x="288" y="180" width="12" height="12"/>
    <rect x="300" y="180" width="12" height="12"/>
    <rect x="312" y="180" width="12" height="12"/>
    <rect x="336" y="180" width="12" height="12"/>
    <rect x="396" y="180" width="12" height="12"/>
    <rect x="408" y="180" width="12" height="12"/>
    <rect x="420" y="180" width="12" height="12"/>
    <rect x="468" y="180" width="12" height="12"/>
    <rect x="48" y="192" width="12" height="12"/>
    <rect x="72" y="192" width="12" height="12"/>
    <rect x="96" y="192" width="12" height="12"/>
    <rect x="120" y="192" width="12" height="12"/>
    <rect x="144" y="192" width="12" height="12"/>
    <rect x="168" y="192" width="12" height="12"/>
    <rect x="192" y="192" width="12" height="12"/>
    <rect x="216" y="192" width="12" height="12"/>
    <rect x="240" y="192" width="12" height="12"/>
    <rect x="276" y="192" width="12" height="12"/>
    <rect x="312" y="192" width="12" height="12"/>
    <rect x="324" y="192" width="12" height="12"/>
    <rect x="336" y="192" width="12" height="12"/>
    <rect x="396" y="192" width="12" height="12"/>
    <rect x="420" y="192" width="12" height="12"/>
    <rect x="456" y="192" width="12" height="12"/>
    <rect x="468" y="192" width="12" height="12"/>
    <rect x="480" y="192" width="12" height="12"/>
    <rect x="60" y="204" width="12" height="12"/>
    <rect x="84" y="204" width="12" height="12"/>
    <rect x="108" y="204" width="12" height="12"/>
    <rect x="132" y="204" width="12" height="12"/>
    <rect x="156" y="204" width="12" height="12"/>
    <rect x="180" y="204" width="12" height="12"/>
    <rect x="204" y="204" width="12" height="12"/>
    <rect x="228" y="204" width="12" height="12"/>
    <rect x="240" y="204" width="12" height="12"/>
    <rect x="252" y="204" width="12" height="12"/>
    <rect x="276" y="204" width="12" height="12"/>
    <rect x="300" y="204" width="12" height="12"/>
    <rect x="312" y="204" width="12" height="12"/>
    <rect x="324" y="204" width="12" height="12"/>
    <rect x="336" y="204" width="12" height="12"/>
    <rect x="372" y="204" width="12" height="12"/>
    <rect x="396" y="204" width="12" height="12"/>
    <rect x="432" y="204" width="12" height="12"/>
    <rect x="480" y="204" width="12" height="12"/>
    <rect x="48" y="216" width="12" height="12"/>
    <rect x="72" y="216" width="12" height="12"/>
    <rect x="96" y="216" width="12" height="12"/>
    <rect x="120" y="216" width="12" height="12"/>
    <rect x="144" y="216" width="12" height="12"/>
    <rect x="168" y="216" width="12" height="12"/>
    <rect x="192" y="216" width="12" height="12"/>
    <rect x="216" y="216" width="12" height="12"/>
    <rect x="228" y="216" width="12" height="12"/>
    <rect x="240" y="216" width="12" height="12"/>
    <rect x="252" y="216" width="12" height="12"/>
    <rect x="264" y="216" width="12" height="12"/>
    <rect x="324" y="216" width="12" height="12"/>
    <rect x="336" y="216" width="12" height="12"/>
    <rect x="348" y="216" width="12" height="12"/>
    <rect x="444" y="216" width="12" height="12"/>
    <rect x="468" y="216" width="12" height="12"/>
    <rect x="480" y="216" width="12" height="12"/>
    <rect x="60" y="228" width="12" height="12"/>
    <rect x="84" y="228" width="12" height="12"/>
    <rect x="108" y="228" width="12" height="12"/>
    <rect x="132" y="228" width="12" height="12"/>
    <rect x="156" y="228" width="12" height="12"/>
    <rect x="180" y="228" width="12" height="12"/>
    <rect x="204" y="228" width="12" height="12"/>
    <rect x="240" y="228" width="12" height="12"/>
    <rect x="252" y="228" width="12" height="12"/>
    <rect x="264" y="228" width="12" height="12"/>
    <rect x="276" y="228" width="12" height="12"/>
    <rect x="300" y="228" width="12" height="12"/>
    <rect x="336" y="228" width="12" height="12"/>
    <rect x="348" y="228" width="12" height="12"/>
    <rect x="372" y="228" width="12" height="12"/>
    <rect x="396" y="228" width="12" height="12"/>
    <rect x="408" y="228" width="12" height="12"/>
    <rect x="444" y="228" width="12" height="12"/>
    <rect x="48" y="240" width="12" height="12"/>
    <rect x="72" y="240" width="12" height="12"/>
    <rect x="96" y="240" width="12" height="12"/>
    <rect x="120" y="240" width="12" height="12"/>
    <rect x="144" y="240" width="12" height="12"/>
    <rect x="168" y="240" width="12" height="12"/>
    <rect x="192" y="240" width="12" height="12"/>
    <rect x="216" y="240" width="12" height="12"/>
    <rect x="228" y="240" width="12" height="12"/>
    <rect x="252" y="240" width="12" height="12"/>
    <rect x="288" y="240" width="12" height="12"/>
    <rect x="300" y="240" width="12" height="12"/>
    <rect x="324" y="240" width="12" height="12"/>
    <rect x="336" y="240" width="12" height="12"/>
    <rect x="348" y="240" width="12" height="12"/>
    <rect x="360" y="240" width="12" height="12"/>
    <rect x="396" y="240" width="12" height="12"/>
    <rect x="408" y="240" width="12" height="12"/>
    <rect x="420" y="240" width="12" height="12"/>
    <rect x="456" y="240" width="12" height="12"/>
    <rect x="468" y="240" width="12" height="12"/>
    <rect x="480" y="240" width="12" height="12"/>
    <rect x="60" y="252" width="12" height="12"/>
    <rect x="84" y="252" width="12" height="12"/>
    <rect x="108" y="252" width="12" height="12"/>
    <rect x="132" y="252" width="12" height="12"/>
    <rect x="156" y="252" width="12" height="12"/>
    <rect x="180" y="252" width="12" height="12"/>
    <rect x="204" y="252" width="12" height="12"/>
    <rect x="240" y="252" width="12" height="12"/>
    <rect x="252" y="252" width="12" height="12"/>
    <rect x="264" y="252" width="12" height="12"/>
    <rect x="288" y="252" width="12" height="12"/>
    <rect x="348" y="252" width="12" height="12"/>
    <rect x="360" y="252" width="12" height="12"/>
    <rect x="384" y="252" width="12" height="12"/>
    <rect x="408" y="252" width="12" height="12"/>
    <rect x="432" y="252" width="12" height="12"/>
    <rect x="480" y="252" width="12" height="12"/>
    <rect x="48" y="264" width="12" height="12"/>
    <rect x="72" y="264" width="12" height="12"/>
    <rect x="96" y="264" width="12" height="12"/>
    <rect x="120" y="264" width="12" height="12"/>
    <rect x="144" y="264" width="12" height="12"/>
    <rect x="168" y="264" width="12" height="12"/>
    <rect x="192" y="264" width="12" height="12"/>
    <rect x="216" y="264" width="12" height="12"/>
    <rect x="264" y="264" width="12" height="12"/>
    <rect x="300" y="264" width="12" height="12"/>
    <rect x="360" y="264" width="12" height="12"/>
    <rect x="384" y="264" width="12" height="12"/>
    <rect x="408" y="264" width="12" height="12"/>
    <rect x="468" y="264" width="12" height="12"/>
    <rect x="480" y="264" width="12" height="12"/>
    <rect x="60" y="276" width="12" height="12"/>
    <rect x="84" y="276" width="12" height="12"/>
    <rect x="108" y="276" width="12" height="12"/>
    <rect x="132" y="276" width="12" height="12"/>
    <rect x="156" y="276" width="12" height="12"/>
    <rect x="180" y="276" width="12" height="12"/>
    <rect x="204" y="276" width="12" height="12"/>
    <rect x="240" y="276" width="12" height="12"/>
    <rect x="252" y="276" width="12" height="12"/>
    <rect x="264" y="276" width="12" height="12"/>
    <rect x="276" y="276" width="12" height="12"/>
    <rect x="348" y="276" width="12" height="12"/>
    <rect x="360" y="276" width="12" height="12"/>
    <rect x="372" y="276" width="12" height="12"/>
    <rect x="420" y="276" width="12" height="12"/>
    <rect x="444" y="276" width="12" height="12"/>
    <rect x="468" y="276" width="12" height="12"/>
    <rect x="48" y="288" width="12" height="12"/>
    <rect x="72" y="288" width="12" height="12"/>
    <rect x="96" y="288" width="12" height="12"/>
    <rect x="120" y="288" width="12" height="12"/>
    <rect x="144" y="288" width="12" height="12"/>
    <rect x="168" y="288" width="12" height="12"/>
    <rect x="192" y="288" width="12" height="12"/>
    <rect x="216" y="288" width="12" height="12"/>
    <rect x="228" y="288" width="12" height="12"/>
    <rect x="264" y="288" width="12" height="12"/>
    <rect x="276" y="288" width="12" height="12"/>
    <rect x="288" y="288" width="12" height="12"/>
    <rect x="360" y="288" width="12" height="12"/>
    <rect x="384" y="288" width="12" height="12"/>
    <rect x="408" y="288" width="12" height="12"/>
    <rect x="420" y="288" width="12" height="12"/>
    <rect x="432" y="288" width="12" height="12"/>
    <rect x="456" y="288" width="12" height="12"/>
    <rect x="60" y="300" width="12" height="12"/>
    <rect x="84" y="300" width="12" height="12"/>
    <rect x="108" y="300" width="12" height="12"/>
    <rect x="132" y="300" width="12" height="12"/>
    <rect x="156" y="300" width="12" height="12"/>
    <rect x="180" y="300" width="12" height="12"/>
    <rect x="204" y="300" width="12" height="12"/>
    <rect x="228" y="300" width="12" height="12"/>
    <rect x="264" y="300" width="12" height="12"/>
    <rect x="276" y="300" width="12" height="12"/>
    <rect x="288" y="300" width="12" height="12"/>
    <rect x="324" y="300" width="12" height="12"/>
    <rect x="348" y="300" width="12" height="12"/>
    <rect x="360" y="300" width="12" height="12"/>
    <rect x="372" y="300" width="12" height="12"/>
    <rect x="384" y="300" width="12" height="12"/>
    <rect x="480" y="300" width="12" height="12"/>
    <rect x="48" y="312" width="12" height="12"/>
    <rect x="72" y="312" width="12" height="12"/>
    <rect x="96" y="312" width="12" height="12"/>
    <rect x="120" y="312" width="12" height="12"/>
    <rect x="144" y="312" width="12" height="12"/>
    <rect x="168" y="312" width="12" height="12"/>
    <rect x="192" y="312" width="12" height="12"/>
    <rect x="216" y="312" width="12" height="12"/>
    <rect x="264" y="312" width="12" height="12"/>
    <rect x="276" y="312" width="12" height="12"/>
    <rect x="288" y="312" width="12" height="12"/>
    <rect x="312" y="312" width="12" height="12"/>
    <rect x="348" y="312" width="12" height="12"/>
    <rect x="360" y="312" width="12" height="12"/>
    <rect x="372" y="312" width="12" height="12"/>
    <rect x="384" y="312" width="12" height="12"/>
    <rect x="408" y="312" width="12" height="12"/>
    <rect x="444" y="312" width="12" height="12"/>
    <rect x="468" y="312" width="12" height="12"/>
    <rect x="480" y="312" width="12" height="12"/>
    <rect x="60" y="324" width="12" height="12"/>
    <rect x="84" y="324" width="12" height="12"/>
    <rect x="108" y="324" width="12" height="12"/>
    <rect x="132" y="324" width="12" height="12"/>
    <rect x="156" y="324" width="12" height="12"/>
    <rect x="180" y="324" width="12" height="12"/>
    <rect x="204" y="324" width="12" height="12"/>
    <rect x="228" y="324" width="12" height="12"/>
    <rect x="252" y="324" width="12" height="12"/>
    <rect x="264" y="324" width="12" height="12"/>
    <rect x="288" y="324" width="12" height="12"/>
    <rect x="300" y="324" width="12" height="12"/>
    <rect x="324" y="324" width="12" height="12"/>
    <rect x="348" y="324" width="12" height="12"/>
    <rect x="384" y="324" width="12" height="12"/>
    <rect x="396" y="324" width="12" height="12"/>
    <rect x="408" y="324" width="12" height="12"/>
    <rect x="420" y="324" width="12" height="12"/>
    <rect x="444" y="324" width="12" height="12"/>
    <rect x="48" y="336" width="12" height="12"/>
    <rect x="72" y="336" width="12" height="12"/>
    <rect x="96" y="336" width="12" height="12"/>
    <rect x="120" y="336" width="12" height="12"/>
    <rect x="144" y="336" width="12" height="12"/>
    <rect x="168" y="336" width="12" height="12"/>
    <rect x="192" y="336" width="12" height="12"/>
    <rect x="216" y="336" width="12" height="12"/>
    <rect x="252" y="336" width="12" height="12"/>
    <rect x="276" y="336" width="12" height="12"/>
    <rect x="288" y="336" width="12" height="12"/>
    <rect x="300" y="336" width="12" height="12"/>
    <rect x="348" y="336" width="12" height="12"/>
    <rect x="360" y="336" width="12" height="12"/>
    <rect x="372" y="336" width="12" height="12"/>
    <rect x="408" y="336" width="12" height="12"/>
    <rect x="420" y="336" width="12" height="12"/>
    <rect x="444" y="336" width="12" height="12"/>
    <rect x="456" y="336" width="12" height="12"/>
    <rect x="60" y="348" width="12" height="12"/>
    <rect x="84" y="348" width="12" height="12"/>
    <rect x="108" y="348" width="12" height="12"/>
    <rect x="132" y="348" width="12" height="12"/>
    <rect x="156" y="348" width="12" height="12"/>
    <rect x="180" y="348" width="12" height="12"/>
    <rect x="204" y="348" width="12" height="12"/>
    <rect x="228" y="348" width="12" height="12"/>
    <rect x="240" y="348" width="12" height="12"/>
    <rect x="288" y="348" width="12" height="12"/>
    <rect x="300" y="348" width="12" height="12"/>
    <rect x="312" y="348" width="12" height="12"/>
    <rect x="336" y="348" width="12" height="12"/>
    <rect x="408" y="348" width="12" height="12"/>
    <rect x="432" y="348" width="12" height="12"/>
    <rect x="468" y="348" width="12" height="12"/>
    <rect x="480" y="348" width="12" height="12"/>
    <rect x="48" y="360" width="12" height="12"/>
    <rect x="72" y="360" width="12" height="12"/>
    <rect x="96" y="360" width="12" height="12"/>
    <rect x="120" y="360" width="12" height="12"/>
    <rect x="144" y="360" width="12" height="12"/>
    <rect x="168" y="360" width="12" height="12"/>
    <rect x="192" y="360" width="12" height="12"/>
    <rect x="216" y="360" width="12" height="12"/>
    <rect x="252" y="360" width="12" height="12"/>
    <rect x="288" y="360" width="12" height="12"/>
    <rect x="312" y="360" width="12" height="12"/>
    <rect x="348" y="360" width="12" height="12"/>
    <rect x="384" y="360" width="12" height="12"/>
    <rect x="396" y="360" width="12" height="12"/>
    <rect x="420" y="360" width="12" height="12"/>
    <rect x="444" y="360" width="12" height="12"/>
    <rect x="468" y="360" width="12" height="12"/>
    <rect x="480" y="360" width="12" height="12"/>
    <rect x="60" y="372" width="12" height="12"/>
    <rect x="84" y="372" width="12" height="12"/>
    <rect x="108" y="372" width="12" height="12"/>
    <rect x="132" y="372" width="12" height="12"/>
    <rect x="156" y="372" width="12" height="12"/>
    <rect x="180" y="372" width="12" height="12"/>
    <rect x="204" y="372" width="12" height="12"/>
    <rect x="228" y="372" width="12" height="12"/>
    <rect x="240" y="372" width="12" height="12"/>
    <rect x="288" y="372" width="12" height="12"/>
    <rect x="300" y="372" width="12" height="12"/>
    <rect x="312" y="372" width="12" height="12"/>
    <rect x="324" y="372" width="12" height="12"/>
    <rect x="372" y="372" width="12" height="12"/>
    <rect x="396" y="372" width="12" height="12"/>
    <rect x="408" y="372" width="12" height="12"/>
    <rect x="444" y="372" width="12" height="12"/>
    <rect x="480" y="372" width="12" height="12"/>
    <rect x="48" y="384" width="12" height="12"/>
    <rect x="72" y="384" width="12" height="12"/>
    <rect x="96" y="384" width="12" height="12"/>
    <rect x="120" y="384" width="12" height="12"/>
    <rect x="144" y="384" width="12" height="12"/>
    <rect x="168" y="384" width="12" height="12"/>
    <rect x="192" y="384" width="12" height="12"/>
    <rect x="216" y="384" width="12" height="12"/>
    <rect x="240" y="384" width="12" height="12"/>
    <rect x="276" y="384" width="12" height="12"/>
    <rect x="312" y="384" width="12" height="12"/>
    <rect x="324" y="384" width="12" height="12"/>
    <rect x="336" y="384" width="12" height="12"/>
    <rect x="384" y="384" width="12" height="12"/>
    <rect x="396" y="384" width="12" height="12"/>
    <rect x="408" y="384" width="12" height="12"/>
    <rect x="420" y="384" width="12" height="12"/>
    <rect x="432" y="384" width="12" height="12"/>
    <rect x="444" y="384" width="12" height="12"/>
    <rect x="480" y="384" width="12" height="12"/>
    <rect x="144" y="396" width="12" height="12"/>
    <rect x="156" y="396" width="12" height="12"/>
    <rect x="180" y="396" width="12" height="12"/>
    <rect x="204" y="396" width="12" height="12"/>
    <rect x="228" y="396" width="12" height="12"/>
    <rect x="240" y="396" width="12" height="12"/>
    <rect x="252" y="396" width="12" height="12"/>
    <rect x="276" y="396" width="12" height="12"/>
    <rect x="300" y="396" width="12" height="12"/>
    <rect x="312" y="396" width="12" height="12"/>
    <rect x="324" y="396" width="12" height="12"/>
    <rect x="336" y="396" width="12" height="12"/>
    <rect x="384" y="396" width="12" height="12"/>
    <rect x="432" y="396" width="12" height="12"/>
    <rect x="444" y="396" width="12" height="12"/>
    <rect x="480" y="396" width="12" height="12"/>
    <rect x="48" y="408" width="12" height="12"/>
    <rect x="60" y="408" width="12" height="12"/>
    <rect x="72" y="408" width="12" height="12"/>
    <rect x="84" y="408" width="12" height="12"/>
    <rect x="96" y="408" width="12" height="12"/>
    <rect x="108" y="408" width="12" height="12"/>
    <rect x="120" y="408" width="12" height="12"/>
    <rect x="168" y="408" width="12" height="12"/>
    <rect x="192" y="408" width="12" height="12"/>
    <rect x="216" y="408" width="12" height="12"/>
    <rect x="228" y="408" width="12" height="12"/>
    <rect x="240" y="408" width="12" height="12"/>
    <rect x="264" y="408" width="12" height="12"/>
    <rect x="324" y="408" width="12" height="12"/>
    <rect x="336" y="408" width="12" height="12"/>
    <rect x="384" y="408" width="12" height="12"/>
    <rect x="408" y="408" width="12" height="12"/>
    <rect x="432" y="408" width="12" height="12"/>
    <rect x="444" y="408" width="12" height="12"/>
    <rect x="468" y="408" width="12" height="12"/>
    <rect x="480" y="408" width="12" height="12"/>
    <rect x="48" y="420" width="12" height="12"/>
    <rect x="120" y="420" width="12" height="12"/>
    <rect x="156" y="420" width="12" height="12"/>
    <rect x="180" y="420" width="12" height="12"/>
    <rect x="204" y="420" width="12" height="12"/>
    <rect x="240" y="420" width="12" height="12"/>
    <rect x="252" y="420" width="12" height="12"/>
    <rect x="264" y="420" width="12" height="12"/>
    <rect x="276" y="420" width="12" height="12"/>
    <rect x="300" y="420" width="12" height="12"/>
    <rect x="312" y="420" width="12" height="12"/>
    <rect x="336" y="420" width="12" height="12"/>
    <rect x="348" y="420" width="12" height="12"/>
    <rect x="360" y="420" width="12" height="12"/>
    <rect x="372" y="420" width="12" height="12"/>
    <rect x="384" y="420" width="12" height="12"/>
    <rect x="432" y="420" width="12" height="12"/>
    <rect x="480" y="420" width="12" height="12"/>
    <rect x="48" y="432" width="12" height="12"/>
    <rect x="72" y="432" width="12" height="12"/>
    <rect x="84" y="432" width="12" height="12"/>
    <rect x="96" y="432" width="12" height="12"/>
    <rect x="120" y="432" width="12" height="12"/>
    <rect x="144" y="432" width="12" height="12"/>
    <rect x="168" y="432" width="12" height="12"/>
    <rect x="192" y="432" width="12" height="12"/>
    <rect x="216" y="432" width="12" height="12"/>
    <rect x="228" y="432" width="12" height="12"/>
    <rect x="240" y="432" width="12" height="12"/>
    <rect x="252" y="432" width="12" height="12"/>
    <rect x="288" y="432" width="12" height="12"/>
    <rect x="300" y="432" width="12" height="12"/>
    <rect x="324" y="432" width="12" height="12"/>
    <rect x="348" y="432" width="12" height="12"/>
    <rect x="384" y="432" width="12" height="12"/>
    <rect x="396" y="432" width="12" height="12"/>
    <rect x="408" y="432" width="12" height="12"/>
    <rect x="420" y="432" width="12" height="12"/>
    <rect x="432" y="432" width="12" height="12"/>
    <rect x="456" y="432" width="12" height="12"/>
    <rect x="480" y="432" width="12" height="12"/>
    <rect x="48" y="444" width="12" height="12"/>
    <rect x="72" y="444" width="12" height="12"/>
    <rect x="84" y="444" width="12" height="12"/>
    <rect x="96" y="444" width="12" height="12"/>
    <rect x="120" y="444" width="12" height="12"/>
    <rect x="156" y="444" width="12" height="12"/>
    <rect x="180" y="444" width="12" height="12"/>
    <rect x="204" y="444" width="12" height="12"/>
    <rect x="240" y="444" width="12" height="12"/>
    <rect x="252" y="444" width="12" height="12"/>
    <rect x="264" y="444" width="12" height="12"/>
    <rect x="336" y="444" width="12" height="12"/>
    <rect x="348" y="444" width="12" height="12"/>
    <rect x="360" y="444" width="12" height="12"/>
    <rect x="408" y="444" width="12" height="12"/>
    <rect x="432" y="444" width="12" height="12"/>
    <rect x="480" y="444" width="12" height="12"/>
    <rect x="48" y="456" width="12" height="12"/>
    <rect x="72" y="456" width="12" height="12"/>
    <rect x="84" y="456" width="12" height="12"/>
    <rect x="96" y="456" width="12" height="12"/>
    <rect x="120" y="456" width="12" height="12"/>
    <rect x="144" y="456" width="12" height="12"/>
    <rect x="168" y="456" width="12" height="12"/>
    <rect x="192" y="456" width="12" height="12"/>
    <rect x="216" y="456" width="12" height="12"/>
    <rect x="240" y="456" width="12" height="12"/>
    <rect x="264" y="456" width="12" height="12"/>
    <rect x="288" y="456" width="12" height="12"/>
    <rect x="300" y="456" width="12" height="12"/>
    <rect x="360" y="456" width="12" height="12"/>
    <rect x="384" y="456" width="12" height="12"/>
    <rect x="408" y="456" width="12" height="12"/>
    <rect x="432" y="456" width="12" height="12"/>
    <rect x="444" y="456" width="12" height="12"/>
    <rect x="480" y="456" width="12" height="12"/>
    <rect x="48" y="468" width="12" height="12"/>
    <rect x="120" y="468" width="12" height="12"/>
    <rect x="156" y="468" width="12" height="12"/>
    <rect x="180" y="468" width="12" height="12"/>
    <rect x="204" y="468" width="12" height="12"/>
    <rect x="252" y="468" width="12" height="12"/>
    <rect x="264" y="468" width="12" height="12"/>
    <rect x="348" y="468" width="12" height="12"/>
    <rect x="360" y="468" width="12" height="12"/>
    <rect x="384" y="468" width="12" height="12"/>
    <rect x="420" y="468" width="12" height="12"/>
    <rect x="432" y="468" width="12" height="12"/>
    <rect x="444" y="468" width="12" height="12"/>
    <rect x="456" y="468" width="12" height="12"/>
    <rect x="468" y="468" width="12" height="12"/>
    <rect x="48" y="480" width="12" height="12"/>
    <rect x="60" y="480" width="12" height="12"/>
    <rect x="72" y="480" width="12" height="12"/>
    <rect x="84" y="480" width="12" height="12"/>
    <rect x="96" y="480" width="12" height="12"/>
    <rect x="108" y="480" width="12" height="12"/>
    <rect x="120" y="480" width="12" height="12"/>
    <rect x="144" y="480" width="12" height="12"/>
    <rect x="168" y="480" width="12" height="12"/>
    <rect x="192" y="480" width="12" height="12"/>
    <rect x="216" y="480" width="12" height="12"/>
    <rect x="264" y="480" width="12" height="12"/>
    <rect x="288" y="480" width="12" height="12"/>
    <rect x="360" y="480" width="12" height="12"/>
    <rect x="384" y="480" width="12" height="12"/>
    <rect x="408" y="480" width="12" height="12"/>
    <rect x="432" y="480" width="12" height="12"/>
    <rect x="468" y="480" width="12" height="12"/>
    <rect x="480" y="480" width="12" height="12"/>
  </g>
  <text x="270" y="568" text-anchor="middle" font-family="sans-serif" font-size="24" font-weight="700" fill="#4f3b34">おしゃれして しゅっぱつ！</text>
  <text x="270" y="596" text-anchor="middle" font-family="sans-serif" font-size="15" fill="#6a5144">https://fzr400r3en2-sys.github.io/osyare_syuppatsu/</text>
</svg>
