<svg viewBox="0 0 800 1000" xmlns="http://www.w3.org/2000/svg" data-draw-bounds="282 696 518 826">
  <g stroke="#5b4438" stroke-width="12" stroke-linejoin="round">
    <path d="M302 696h96v126H282v-34c0-20 20-36 42-36h-22z" fill="#ffd84e"/>
    <path d="M402 696h96v56h-22c22 0 42 16 42 36v34H402z" fill="#ffd84e"/>
    <path d="M304 720h92M404 720h92" stroke="#fff8cf" stroke-linecap="round"/>
    <path d="M304 748h92M404 748h92" stroke="#ff9a65" stroke-width="8" stroke-linecap="round" opacity=".55"/>
  </g>
  <g fill="#65c7ff" opacity=".56">
    <path d="M342 770c8 13 12 22 12 30a12 12 0 1 1-24 0c0-8 4-17 12-30z"/>
    <path d="M456 770c8 13 12 22 12 30a12 12 0 1 1-24 0c0-8 4-17 12-30z"/>
  </g>
</svg>
